<svg version="1.2" xmlns="http://www.w3.org/2000/svg" viewBox="0 0 429 350" width="429" height="350">
	<title>admin_panel_character-svg</title>
	<style>
		.s0 { fill: #000000 } 
		.s1 { fill: #e0e0e0 } 
		.s2 { fill: #263238 } 
		.s3 { fill: #f5f5f5 } 
		.s4 { fill: #ffffff } 
		.s5 { fill: #455a64 } 
		.s6 { fill: #ffbe9d } 
		.s7 { fill: #eb996e } 
	</style>
	<g id="freepik--Table--inject-539">
		<path id="Layer" class="s0" d="m430.3 281c-0.1 0.1-98.2 0.3-219.2 0.3-121.1 0-219.2-0.2-219.2-0.3 0-0.1 98.1-0.3 219.2-0.3 121 0 219.1 0.1 219.1 0.3z"/>
	</g>
	<g id="freepik--Character--inject-539">
		<path id="Layer" class="s1" d="m267.5 305.5l-70.2-22.5q-0.1 0-0.1 0-0.1-0.1-0.2-0.1 0 0-0.1 0-0.1 0-0.2 0l-54 4c-9.5-23-21.4-51.7-26.8-64.8q-0.6-1.7-1.7-3-1.1-1.4-2.5-2.5-1.4-1.1-3-1.7-1.6-0.7-3.3-0.9l-58.5-7.6c-0.7-0.1-1.4 0-2.1 0.2-0.6 0.3-1.2 0.8-1.6 1.3-0.4 0.6-0.7 1.2-0.8 1.9-0.1 0.7 0 1.4 0.3 2.1l32.9 76.8q0.4 0.7 0.8 1.4 0.5 0.7 1.1 1.3 0.6 0.5 1.3 1 0.8 0.4 1.5 0.7l66.9 26.7q0.6 0.2 1.2 0.3 0.6 0.2 1.2 0.3 0.6 0.1 1.2 0.1 0.6 0 1.3-0.1l4.2-0.5c14.9-1.5 88-9 110.9-11.4 0.4 0 0.7-0.1 1-0.4 0.3-0.2 0.4-0.6 0.5-0.9 0-0.4-0.1-0.8-0.3-1.1-0.2-0.3-0.5-0.5-0.9-0.6z"/>
		<path id="Layer" class="s2" d="m267.5 305.5q0.2 0.1 0.4 0.2 0.1 0.1 0.2 0.2 0.2 0.1 0.3 0.3 0.1 0.2 0.1 0.3 0.1 0.3 0.1 0.5 0 0.2-0.1 0.4 0 0.3-0.2 0.5-0.1 0.2-0.3 0.3-0.1 0.1-0.2 0.2-0.1 0-0.3 0.1-0.1 0-0.3 0.1-0.1 0-0.3 0l-1.3 0.1-16.4 1.8-60.5 6.3-20 2-10.6 1.1-5.5 0.6q-0.7 0.1-1.4 0.2-0.7 0-1.4-0.1-0.7-0.1-1.4-0.3-0.7-0.2-1.4-0.4l-44.7-17.8-12-4.8-6.1-2.4-3-1.2c-0.6-0.3-1-0.4-1.6-0.7q-0.2-0.1-0.4-0.2-0.2-0.1-0.4-0.2-0.1-0.1-0.3-0.2-0.2-0.1-0.4-0.2-0.3-0.3-0.6-0.6-0.4-0.3-0.6-0.6-0.3-0.3-0.6-0.7-0.2-0.3-0.5-0.7c-0.5-1-0.9-2-1.3-3.1l-2.7-6.2q-2.7-6.2-5.4-12.6c-7.3-17-14.8-34.5-22.5-52.5l-1.1-2.5q-0.2-0.3-0.3-0.6-0.1-0.3-0.2-0.7-0.1-0.3-0.1-0.6-0.1-0.4-0.1-0.7 0.1-0.8 0.4-1.4 0.2-0.7 0.7-1.2 0.5-0.6 1.1-0.9 0.6-0.4 1.3-0.5c0.3 0 0.5 0 0.7-0.1l0.7 0.1 1.3 0.2 2.7 0.3 5.2 0.7 20.7 2.7 20.2 2.6 5 0.7c1.7 0.2 3.3 0.3 5 0.7q1.2 0.4 2.4 0.9 1.1 0.5 2.1 1.3 1.1 0.7 1.9 1.6 0.9 0.9 1.6 2 0.3 0.5 0.6 1 0.3 0.6 0.5 1.1 0.3 0.6 0.5 1.2 0.3 0.5 0.5 1.1 0.9 2.2 1.8 4.5l3.7 8.8 7 17.1c4.7 11.3 9.1 22 13.3 32.3l-0.2-0.1 52.6-3.9 1.5-0.1q0.1-0.1 0.2 0 0.1 0 0.2 0 0.1 0 0.2 0 0.1 0.1 0.2 0.1l0.7 0.2 2.6 0.9 5.3 1.7 10 3.3 17.8 5.7 24.7 8 6.5 2.1q2.2 0.8 2.2 0.8 0 0-2.2-0.7l-6.5-2.1-24.8-7.9-17.7-5.7-10.1-3.2-5.3-1.7-2.8-0.9q-0.1 0-0.3-0.1-0.2 0-0.3-0.1-0.2 0-0.4-0.1-0.1 0-0.3 0l-1.5 0.1-52.6 4h-0.1l-0.1-0.2q-6.4-15.3-13.3-32.2l-7.1-17.2q-1.8-4.3-3.6-8.8c-0.7-1.5-1.3-3-1.9-4.4q-0.2-0.6-0.4-1.2-0.3-0.5-0.5-1.1-0.3-0.5-0.6-1-0.2-0.6-0.5-1.1-0.7-1-1.5-1.9-0.9-0.8-1.9-1.5-0.9-0.7-2-1.3-1.1-0.5-2.3-0.8c-1.6-0.4-3.2-0.5-4.9-0.7l-5-0.7-20.2-2.6-20.7-2.7-5.2-0.7-2.7-0.3q-0.3-0.1-0.6-0.1-0.3-0.1-0.6-0.1-0.4 0-0.7 0-0.3 0-0.6 0-0.6 0.1-1.2 0.4-0.5 0.3-0.9 0.8-0.5 0.5-0.7 1.1-0.2 0.6-0.3 1.2 0 0.3 0.1 0.6 0 0.3 0.1 0.6 0.1 0.4 0.2 0.7 0.1 0.3 0.2 0.5l1.1 2.5 22.6 52.5q2.7 6.4 5.4 12.6 1.3 3.1 2.6 6.2c0.5 1 0.9 2.1 1.4 3q0.2 0.4 0.4 0.7 0.3 0.3 0.5 0.6 0.3 0.3 0.6 0.6 0.3 0.3 0.6 0.5 0.2 0.1 0.4 0.3 0.1 0.1 0.3 0.2 0.2 0.1 0.3 0.2 0.2 0 0.4 0.1 0.7 0.3 1.5 0.6l3.1 1.3 6.1 2.4 12 4.8 44.7 17.8q0.6 0.3 1.3 0.5 0.7 0.1 1.4 0.2 0.6 0.1 1.3 0.1 0.7 0 1.4-0.1l5.5-0.6 10.6-1.1 20-2 60.5-6.1 16.4-1.7 1.3-0.1q0.2 0 0.3 0 0.2 0 0.3-0.1 0.1 0 0.3-0.1 0.1-0.1 0.2-0.1 0.2-0.2 0.3-0.4 0.1-0.2 0.2-0.4 0.1-0.2 0.1-0.4 0-0.2-0.1-0.4 0-0.2-0.1-0.3-0.1-0.1-0.1-0.2-0.1-0.1-0.2-0.2-0.1-0.1-0.2-0.2c-0.3-0.1-0.4-0.1-0.4-0.2z"/>
		<path id="Layer" class="s3" d="m177.2 291.6l26.3 11.1 32.8-3.5-27.6-11.3-31.5 3.7z"/>
		<path id="Layer" class="s3" d="m157.3 312.5l51.4-4.7-49.1-19.4-15.8 1.2 8.4 20.1 5.1 2.8z"/>
		<path id="Layer" class="s0" d="m262.4 305.5l-0.3 0.1-1.1 0.1-4 0.4-14.8 1.5-49 4.5-38.6 3.5h-0.1l-0.1-0.1-8.5-20.8-2.3-5.9q-0.4-1-0.6-1.5-0.1-0.1-0.1-0.1 0-0.1 0-0.2-0.1 0-0.1-0.1 0-0.1 0-0.1c0-0.1 0.1 0.1 0.2 0.5l0.7 1.5 2.4 5.8c2.1 5 5.1 12.1 8.7 20.7l-0.2-0.1 38.5-3.6 49.1-4.4 14.8-1.3 4-0.3 1.1-0.1z"/>
		<path id="Layer" class="s0" d="m44.4 209.1h0.4l1.3 0.2 5 0.6 18.4 2.5c7.7 1.1 17 2.4 27.2 3.9l7.8 1.2 2 0.4q0.5 0.1 1 0.2c0.2 0 0.4 0.1 0.5 0.1q0.4 0.1 0.7 0.3 0.3 0.2 0.5 0.3 0.3 0.2 0.6 0.4 0.3 0.3 0.5 0.5 0.1 0.1 0.2 0.2 0.1 0.1 0.1 0.2 0.1 0.2 0.2 0.3 0 0.1 0.1 0.2l0.4 1c2.1 5.3 4.2 10.7 6.5 16.2 8.8 22.2 16.8 42.2 22.6 56.8 2.9 7.2 5.2 13.1 6.8 17.2 0.8 2 1.4 3.6 1.8 4.7q0.3 0.7 0.5 1.2 0 0 0 0.1 0 0 0.1 0.1 0 0.1 0 0.1 0 0.1 0 0.1 0 0 0-0.1-0.1 0-0.1-0.1 0 0 0-0.1 0 0-0.1-0.1l-0.5-1.2-1.9-4.7c-1.6-4-4-9.9-7-17.1l-22.7-56.7c-2.2-5.5-4.3-10.9-6.4-16.2l-0.4-1q-0.1-0.1-0.1-0.2-0.1-0.1-0.1-0.2-0.1-0.1-0.2-0.2-0.1-0.1-0.1-0.2-0.2-0.1-0.4-0.3-0.2-0.2-0.4-0.3-0.2-0.2-0.4-0.3-0.2-0.1-0.4-0.2-0.1 0-0.1-0.1-0.1 0-0.2 0 0 0-0.1-0.1 0 0-0.1 0l-0.5-0.1q-0.4-0.1-1-0.2l-2-0.4-7.8-1.2-27.2-4-18.3-2.7-5-0.7-1.3-0.2z"/>
		<path id="Layer" class="s4" d="m96.1 255.1c2.5 3.4 3 7.2 1.1 8.6-1.8 1.4-5.4-0.2-7.9-3.5-2.5-3.4-3-7.2-1.1-8.6 1.8-1.4 5.4 0.2 7.9 3.5z"/>
		<path id="Layer" class="s2" d="m412.5 198c-3.4-19-24.4-30.4-31.3-36.8l10.4 14q2 8.2 3.4 16.6 1.4 8.4 2.1 16.8 0.8 8.5 0.9 16.9 0.1 8.5-0.4 17c-0.1 2.5 0.1 5.8 1.9 6.1q0.2 0.1 0.5 0 0.2 0 0.4-0.1 0.3 0 0.5-0.1 0.2-0.1 0.4-0.3c6.1-4 10.1-13 11-22.3 0.9-9.3 1.7-19 0.2-27.8z"/>
		<path id="Layer" class="s5" d="m397.1 176.7c-1-1.9-0.6-8-6-1.6l-0.4-2.4-33.4-25.7-74.5 3.9c-7.1 0.4-17.9 12.8-20.6 18-2.2 19.2-2.6 36.3-2.6 36.3 0 0-2.6 21.4 0 31.5 2.6 10.1 5.6 13.7 9.6 21.6q1 2 2.3 3.9 1.2 2 2.5 3.8 1.4 1.9 2.8 3.6 1.5 1.8 3.1 3.4l3.5 27 77.8 7 35.6-2c0 0-3.1-53.2-3.1-54.2 0-0.4 4.4-10.7 9.2-21.6 8.1-18.7 3.5-34.5-5.8-52.5z"/>
		<path id="Layer" class="s5" d="m201.6 273.6c0.4 0 4.3-26.3 6.9-32.3 2.4-5.6 53.7-72.4 53.7-72.4l12.1 39-5.1 20.8-28 33.7-8 24.4z"/>
		<path id="Layer" class="s5" d="m407.5 196.7c-3.7-23.4-22-22.4-22-22.4l-18.1 31.5v65.2l-87.3 7.6-1.7 21.9c0 0 87.1 19.9 107.2 13.2 13.3-4.4 24.6-15.5 25.8-33.7 1.2-18.2-0.2-59.9-3.9-83.3z"/>
		<path id="Layer" class="s0" d="m241.2 262.4q-0.1-0.6-0.2-1.1-0.1-0.6-0.2-1.2-0.1-0.5-0.3-1.1-0.1-0.5-0.3-1-0.8-2.7-2.2-5-1.5-2.3-3.5-4.2-2-1.9-4.4-3.2-2.4-1.3-5.1-2-0.6-0.1-1.1-0.2-0.6-0.1-1.1-0.2-0.6-0.1-1.2-0.2-0.5-0.1-1.1-0.1 0.2 0 0.3 0 0.2-0.1 0.3-0.1 0.2 0 0.4 0.1 0.1 0 0.3 0 0.4 0 0.8 0 0.4 0.1 0.8 0.1 0.5 0.1 0.9 0.2 0.4 0 0.8 0.1 2.7 0.6 5.2 1.9 2.5 1.3 4.5 3.3 2.1 1.9 3.5 4.3 1.5 2.4 2.2 5.1 0.2 0.4 0.3 0.8 0.1 0.4 0.1 0.8 0.1 0.4 0.2 0.8 0 0.5 0.1 0.9 0 0.1 0 0.3 0 0.1 0 0.3 0.1 0.1 0.1 0.3 0 0.1-0.1 0.3z"/>
		<path id="Layer" class="s0" d="m283.1 277.7q0-0.1 0.1-0.1 0 0 0 0 0.1 0 0.1 0 0.1 0 0.1 0l1.1-0.2 4.3-0.5 15.8-2 52-6.4 11.6-1.3-0.3 0.2c0.7-17.7 1-33.3 0.9-44.5 0-5.6-0.1-10.1-0.2-13.2 0-1.5-0.1-2.7-0.1-3.5v-1q0-0.3 0-0.3 0 0.1 0 0.1 0 0 0 0.1 0 0 0 0.1 0 0 0 0 0 0.4 0.1 1c0 0.8 0.1 2 0.2 3.5 0.1 3.1 0.2 7.6 0.3 13.2 0.2 11.2-0.1 26.8-0.7 44.5v0.2h-0.2l-11.6 1.4-52 6.2-15.8 1.8-4.3 0.5-1.1 0.1z"/>
		<path id="Layer" class="s0" d="m412.6 277.7q0 0 0 0.1 0 0 0 0.1 0 0 0 0.1 0 0 0 0.1 0 0.4-0.1 1.1 0 0.6-0.1 1.1 0 0.6-0.1 1.2 0 0.5-0.1 1.1-0.1 0.5-0.2 1.1-0.1 0.8-0.3 1.7-0.2 0.9-0.4 1.7-0.2 0.9-0.5 1.8-0.2 0.8-0.5 1.7-0.4 1.1-0.8 2.2-0.5 1.1-1 2.1-0.5 1.1-1.1 2.1-0.5 1-1.2 2-0.7 1.2-1.6 2.4-0.9 1.1-1.9 2.2-0.9 1-2 2-1 1-2.2 1.8-1.2 1-2.6 1.9-1.4 0.9-2.9 1.6-1.5 0.7-3.1 1.2-1.5 0.6-3.1 1-0.9 0.2-1.7 0.3-0.9 0.2-1.8 0.4-0.9 0.1-1.7 0.2-0.9 0.1-1.8 0.2-0.9 0.1-1.9 0.2-0.9 0-1.8 0.1-0.9 0-1.8 0-1 0-1.9 0-1.9 0-3.9-0.1-1.9-0.2-3.8-0.3-1.9-0.2-3.9-0.5-1.9-0.2-3.8-0.5l-29.5-4.9-12.9-2.1-11.2-2.1c-6.8-1.3-12.4-2.2-16.2-2.8l-4.4-0.7-1.2-0.1q0 0-0.1-0.1 0 0-0.1 0 0 0-0.1 0 0 0-0.1 0h0.4l1.2 0.1c1 0.1 2.5 0.3 4.4 0.6 3.9 0.5 9.4 1.4 16.3 2.6l11.2 2 12.9 2.1 29.5 4.8q1.9 0.4 3.8 0.6 1.9 0.3 3.8 0.4 1.9 0.2 3.9 0.3 1.9 0.2 3.8 0.2 3.8 0 7.3-0.3 0.9 0 1.8-0.2 0.9-0.1 1.7-0.2 0.9-0.1 1.8-0.3 0.8-0.2 1.7-0.4 1.5-0.4 3.1-0.9 1.5-0.5 3-1.2 1.4-0.7 2.8-1.6 1.4-0.8 2.7-1.8 1.1-0.9 2.2-1.8 1-1 2-2 0.9-1 1.8-2.2 0.8-1.1 1.6-2.3 0.6-1 1.2-2 0.6-1 1.1-2 0.5-1.1 1-2.2 0.4-1 0.8-2.1 0.3-0.9 0.6-1.7 0.2-0.9 0.4-1.7 0.3-0.9 0.5-1.7 0.1-0.9 0.3-1.7c0.3-2 0.5-3.5 0.6-4.5l0.1-1.1q0-0.1 0-0.1 0-0.1 0-0.1 0.1-0.1 0.1-0.1 0-0.1 0-0.1z"/>
		<path id="Layer" class="s0" d="m280.7 279.3q0-0.1 0-0.1 0-0.1-0.1-0.1 0-0.1 0-0.1 0-0.1 0-0.1-0.1-0.5-0.2-1.3-0.2-1.6-0.6-4.6l-6.7-7.3q-0.4-0.7-0.9-1.4-0.5-0.7-0.9-1.4-0.4-0.7-0.9-1.5-0.4-0.7-0.8-1.4-0.4-0.9-0.8-1.8-0.4-0.8-0.8-1.7-0.4-0.9-0.7-1.8-0.4-0.8-0.7-1.7-0.7-2.1-1.4-4.1-0.6-2.1-1.1-4.2-0.5-2.1-0.9-4.2-0.3-2.1-0.6-4.3-0.3-2.3-0.4-4.6-0.2-2.3-0.2-4.6-0.1-2.4 0-4.7 0-2.3 0.2-4.6c0.3-5.7 0.9-10.9 1.4-15.1 0.6-4.3 1.1-7.8 1.5-10.2l0.4-2.7q0.1-0.4 0.2-0.7 0 0 0-0.1 0 0 0 0 0-0.1 0-0.1 0 0 0-0.1 0 0.1 0 0.1 0 0 0 0.1 0 0 0 0 0 0.1 0 0.1c0 0.2 0 0.4-0.1 0.7q-0.1 1-0.3 2.8c-0.3 2.4-0.8 5.8-1.3 10.1-0.5 4.3-1 9.4-1.3 15.1q-0.2 2.3-0.2 4.6 0 2.3 0 4.7 0.1 2.3 0.2 4.6 0.2 2.3 0.4 4.6 0.3 2.1 0.7 4.2 0.4 2.1 0.9 4.2 0.4 2.1 1.1 4.1 0.6 2.1 1.3 4.1 0.3 0.9 0.6 1.8 0.4 0.9 0.8 1.7 0.3 0.9 0.7 1.7 0.4 0.9 0.9 1.7 0.3 0.8 0.8 1.5 0.4 0.7 0.8 1.5 0.4 0.7 0.9 1.4 0.4 0.7 0.9 1.4l6.5 7.4 0.6 4.7q0 0.7 0.1 1.2 0 0.1 0 0.1 0 0.1 0 0.1 0 0.1 0 0.2 0 0 0 0.1z"/>
		<path id="Layer" class="s0" d="m380.8 281.7q-0.3-0.3-0.5-0.6-0.3-0.2-0.5-0.5-0.2-0.3-0.4-0.6-0.3-0.3-0.5-0.6c-1-1.5-2.6-3.5-4.4-5.6-1.8-2.2-3.5-4-4.7-5.4q-0.3-0.2-0.5-0.5-0.3-0.2-0.5-0.5-0.3-0.3-0.5-0.6-0.3-0.3-0.5-0.5 0.3 0.2 0.6 0.4 0.3 0.2 0.6 0.5 0.3 0.2 0.5 0.5 0.3 0.2 0.5 0.5 0.7 0.6 1.3 1.3 0.6 0.6 1.2 1.2 0.7 0.7 1.2 1.4 0.6 0.7 1.2 1.3 0.6 0.7 1.1 1.4 0.6 0.7 1.1 1.4 0.6 0.8 1.1 1.5 0.5 0.7 1 1.4 0.2 0.3 0.5 0.7 0.2 0.3 0.3 0.6 0.2 0.3 0.4 0.6 0.2 0.4 0.3 0.7z"/>
		<path id="Layer" class="s6" d="m223 276.8c-0.7-4.3-4.6-7.6-4.6-7.6 0 0-1.9-5.2-4.7-6.6-2.7-1.4-5 1.4-7.4 0.6-2.4-0.7-7.6-0.9-9.3 0-1.6 1-3.7 6.2-3.7 6.2q-0.6 0-1.2 0.1-0.7 0.1-1.3 0.2-0.6 0.2-1.2 0.4-0.5 0.3-1.1 0.6-0.5 0.2-0.9 0.5-0.5 0.3-0.9 0.6-0.4 0.4-0.7 0.8-0.4 0.4-0.7 0.8-0.5-0.2-1.1-0.3-0.6 0-1.2 0.1-0.5 0.2-1 0.5-0.5 0.3-0.9 0.7-0.4 0.4-0.7 0.9-0.4 0.5-0.7 1-0.2 0.5-0.5 1.1-0.2 0.5-0.4 1.1l-1.3 3.5q-0.1 0.2-0.1 0.4-0.1 0.2-0.2 0.4 0 0.3 0 0.5 0 0.2 0 0.4 0.1 0.4 0.2 0.7 0.2 0.3 0.5 0.6 0.3 0.2 0.7 0.4 0.3 0.1 0.7 0.1 0.4 0 0.8-0.1 0.3-0.1 0.7-0.2 0.3-0.2 0.6-0.4 0.3-0.2 0.6-0.5 0.3-0.3 0.5-0.5 0.2-0.3 0.5-0.6 0.2-0.2 0.4-0.5 0.2-0.3 0.4-0.6l0.3 2.3c0 0 0.6 3.7 3.5 3.9 2.1 0.1 4.3-2.2 4.3-2.2l5.2-0.6 0.7 5.2q0.3 0.7 0.8 1.4 0.5 0.6 1.1 1.1 0.7 0.4 1.4 0.6 0.8 0.3 1.6 0.2c1.8 0 4.2-3.1 4.2-3.1l4.9 1.8c0 0 5.5 3.9 8.1 2.6q0.6-0.2 1-0.7 0.4-0.4 0.7-1 0.2-0.5 0.3-1.1 0-0.7-0.1-1.3 0.4-0.4 0.8-0.9 0.3-0.5 0.7-1.1 0.3-0.5 0.6-1.1 0.2-0.5 0.5-1.1c0.7-2.2-0.6-6-1.4-10.2z"/>
		<path id="Layer" class="s7" d="m184 283.5q-0.1-0.7-0.1-1.4 0-0.7 0-1.4 0-0.7 0.1-1.3 0.1-0.7 0.2-1.4 0.1-0.7 0.2-1.4 0.1-0.7 0.3-1.3 0.1-0.7 0.3-1.4 0.3-0.6 0.5-1.2c0.2 0-0.4 2.4-0.8 5.4-0.4 3-0.5 5.4-0.7 5.4z"/>
		<path id="Layer" class="s7" d="m192.1 278.6q0.1 0.5 0.2 1 0.1 0.5 0.2 0.9 0 0.5 0 1 0.1 0.5 0.1 1 0 0.3 0 0.7 0 0.3 0 0.7-0.1 0.3-0.1 0.7-0.1 0.3-0.2 0.7c-0.3 0.7-0.7 1-0.8 0.9 0-0.1 0.3-0.4 0.4-1q0.1-0.3 0.1-0.7 0.1-0.3 0.1-0.6 0-0.4 0-0.7 0-0.3-0.1-0.7 0-0.4-0.1-0.9 0-0.5 0-1 0-0.5 0.1-1 0-0.5 0.1-1z"/>
		<path id="Layer" class="s7" d="m195.6 276.4c0.1 0.1-0.6 1-1.6 1.9-0.9 1-1.7 1.7-1.9 1.6-0.1-0.1 0.6-1 1.6-1.9 0.9-0.9 1.8-1.7 1.9-1.6z"/>
		<path id="Layer" class="s7" d="m196.3 266.4q0 0.4 0 0.7 0.1 0.4 0.1 0.7 0 0.4 0 0.7 0 0.4 0 0.8c0 1.7 0 4.1 0.2 6.8 0.1 2.6 0.3 5 0.5 6.7q0 0.4 0.1 0.7 0 0.4 0 0.7 0.1 0.4 0.1 0.8 0 0.3 0 0.7-0.1-0.4-0.2-0.7-0.1-0.4-0.2-0.7 0-0.4-0.1-0.7 0-0.4-0.1-0.7c-0.2-1.7-0.5-4.1-0.6-6.8-0.2-2.7-0.2-5.1-0.1-6.8q0-0.4 0-0.8 0-0.3 0.1-0.7 0-0.3 0-0.7 0.1-0.3 0.2-0.7z"/>
		<path id="Layer" class="s7" d="m215.7 268.4c0 0-0.2 0.5-0.5 1.4q-0.2 0.5-0.4 1-0.2 0.5-0.3 1-0.2 0.4-0.3 0.9-0.1 0.5-0.2 1-0.3 1.3-0.6 2.8-0.1 0.4-0.2 0.8 0 0.4-0.2 0.8-0.1 0.4-0.2 0.8-0.1 0.4-0.3 0.8-0.1 0.4-0.3 0.8-0.3 0.5-0.5 0.8-0.3 0.4-0.6 0.8-0.3 0.3-0.7 0.6-0.4 0.3-0.8 0.6-0.5 0.2-1 0.3-0.5 0.2-1 0.2-0.5 0-1-0.2-0.3 0-0.5-0.1-0.3-0.1-0.5-0.2-0.2-0.2-0.4-0.3-0.2-0.2-0.4-0.4-0.2-0.2-0.3-0.4-0.2-0.2-0.3-0.5-0.1-0.2-0.1-0.5-0.1-0.2-0.1-0.5-0.1-0.4-0.1-0.9 0-0.4-0.1-0.9 0-0.4 0.1-0.9 0-0.5 0-0.9 0-0.8 0.1-1.6 0.1-0.7 0.2-1.5 0.1-0.7 0.3-1.5 0.1-0.7 0.3-1.5 0.2-0.5 0.3-1 0.2-0.5 0.3-1 0.2-0.5 0.4-0.9 0.2-0.5 0.4-1 0.2-0.7 0.4-1 0 0 0.1-0.1 0 0 0-0.1 0 0 0.1-0.1 0 0 0 0 0 0.1-0.1 0.3 0 0.2-0.1 0.4 0 0.2-0.1 0.3-0.1 0.2-0.1 0.4-0.2 0.5-0.4 1-0.1 0.4-0.3 0.9-0.1 0.5-0.3 1-0.1 0.5-0.2 1-0.2 0.8-0.3 1.5-0.1 0.8-0.2 1.5-0.1 0.8-0.2 1.5-0.1 0.8-0.1 1.5 0 0.5-0.1 0.9 0 0.4 0 0.9 0.1 0.4 0.1 0.9 0 0.4 0.1 0.9 0 0.2 0.1 0.4 0 0.2 0.1 0.4 0.1 0.2 0.2 0.4 0.1 0.2 0.3 0.4 0.1 0.1 0.3 0.3 0.2 0.1 0.4 0.2 0.2 0.1 0.4 0.2 0.2 0.1 0.4 0.2 0.4 0.1 0.9 0.1 0.5 0 0.9-0.2 0.4-0.1 0.9-0.3 0.4-0.2 0.7-0.5 0.3-0.3 0.6-0.6 0.3-0.3 0.6-0.7 0.2-0.3 0.4-0.7 0.2-0.4 0.4-0.8 0.2-0.7 0.5-1.4 0.2-0.8 0.4-1.5 0.2-0.7 0.3-1.5 0.2-0.7 0.3-1.5 0.2-0.5 0.3-1 0.2-0.5 0.3-0.9 0.2-0.5 0.4-1 0.2-0.5 0.4-1 0-0.1 0.1-0.2 0.1-0.2 0.1-0.3 0.1-0.1 0.2-0.2 0-0.1 0.1-0.3 0.2-0.3 0.2-0.3z"/>
		<path id="Layer" class="s7" d="m217.7 270.7q-0.1 0.8-0.5 1.6-0.3 0.7-0.9 1.3-0.6 0.6-1.3 1-0.8 0.4-1.6 0.6 0.3-0.2 0.7-0.5 0.3-0.2 0.6-0.4 0.3-0.3 0.6-0.5 0.3-0.3 0.6-0.5 0.2-0.3 0.5-0.7 0.2-0.3 0.4-0.6 0.3-0.3 0.5-0.7 0.2-0.3 0.4-0.6z"/>
		<path id="Layer" class="s7" d="m206.9 283.6q0.2 0.5 0.2 1 0.1 0.6 0.1 1.1 0.1 0.5 0.1 1.1 0 0.5-0.1 1 0 0.5-0.1 1 0 0.5-0.1 0.9 0 0.5-0.1 1-0.1 0.4-0.2 0.9v0.1q-0.1 0-0.2 0 0 0-0.1 0 0-0.1-0.1-0.1 0-0.1 0-0.1 0-0.2 0-0.2c0 0 0 0.1 0 0.1 0.1 0.1 0.2 0.1 0.2 0l-0.1 0.1c0-0.7 0.2-2.1 0.3-3.7q0-0.6 0-1.1 0-0.5 0-1 0.1-0.5 0.1-1.1 0.1-0.5 0.1-1z"/>
		<path id="Layer" class="s7" d="m218.7 279.5q-0.1 0.2-0.3 0.4-0.1 0.3-0.3 0.5-0.2 0.2-0.4 0.4-0.2 0.2-0.3 0.4-0.5 0.5-0.9 1-0.4 0.6-0.8 1.1-0.3 0.5-0.7 1.1-0.3 0.6-0.6 1.1-0.4 0.6-0.6 1.2-0.3 0.6-0.4 1.3-0.2 0.6-0.3 1.2-0.1 0.7-0.1 1.3c-0.1 1.4 0.2 2.2 0.1 2.2q-0.1-0.2-0.2-0.5-0.1-0.3-0.2-0.5-0.1-0.3-0.1-0.6 0-0.3 0-0.6 0-0.6 0-1.3 0.1-0.7 0.3-1.4 0.2-0.6 0.4-1.3 0.3-0.6 0.6-1.2 0.3-0.6 0.7-1.2 0.4-0.5 0.8-1.1 0.4-0.5 0.8-1 0.5-0.5 0.9-1 0.2-0.2 0.4-0.4 0.2-0.2 0.4-0.4 0.2-0.2 0.4-0.4 0.2-0.2 0.4-0.3z"/>
		<path id="Layer" class="s6" d="m216.7 288.7q-0.3-0.9-0.2-1.7 0-0.9 0.3-1.7 0.3-0.9 0.9-1.5 0.5-0.7 1.2-1.2c3.5-2.5 14-9 14.2-9 0.2 0 12.3-4 17.3-4.5 5.1-0.5 27.3 10.5 27.3 10.5 0 0 5.1 7.4 4.3 14.5-0.8 7.1-5.5 7.6-5.5 7.6l-6.4-1.6-6.6-1.3c0 0-14.7 4.1-17 3.4-2.3-0.8-3.1-3.3-0.6-4.7 2.5-1.3 9.6-3.5 9.6-3.5l5.6-2.3-18 2.6c0 0-15.2 3-17 2.6-1.8-0.5-2.1-1.8-2.2-3 0 0-6.2 3-8 1.3-1.8-1.6-2.6-5.2 0.8-6.5z"/>
		<path id="Layer" class="s7" d="m255.5 284.3q-0.2 0-0.3 0-0.2 0.1-0.4 0.1-0.1 0-0.3 0-0.2 0-0.3 0c-0.9 0-2.2 0-3.7 0.1q-0.7 0-1.3 0.1-0.7 0-1.4 0.1-0.6 0.1-1.3 0.2-0.7 0.2-1.3 0.3-0.4 0.1-0.8 0.2-0.4 0.2-0.7 0.3-0.4 0.1-0.8 0.3-0.4 0.1-0.7 0.3-1.5 0.7-3 1.6-0.4 0.2-0.8 0.4-0.4 0.2-0.8 0.4-0.4 0.2-0.8 0.4-0.4 0.1-0.8 0.3-0.4 0.1-0.8 0.3-0.4 0.1-0.8 0.2-0.4 0-0.8 0.1-0.4 0.1-0.8 0.1-0.7 0-1.3 0-0.7 0.1-1.4 0.1-0.6 0.1-1.3 0.2-0.7 0.1-1.3 0.3-0.5 0.1-0.9 0.3-0.4 0.2-0.7 0.5-0.4 0.2-0.7 0.5-0.4 0.3-0.6 0.7-0.1 0.1-0.2 0.3-0.1 0.1-0.2 0.3-0.1 0.1-0.1 0.2-0.1 0.2-0.2 0.3c0 0.1 0-0.1 0.1-0.3q0-0.1 0-0.2 0.1-0.2 0.1-0.3 0.1-0.1 0.2-0.2 0-0.1 0.1-0.2 0.3-0.4 0.6-0.7 0.3-0.4 0.7-0.7 0.4-0.3 0.8-0.5 0.4-0.2 0.8-0.4 0.7-0.1 1.4-0.3 0.7-0.1 1.3-0.2 0.7-0.1 1.4-0.1 0.7-0.1 1.4-0.1 0.8-0.1 1.6-0.3 0.8-0.1 1.6-0.4 0.7-0.3 1.5-0.7 0.7-0.3 1.4-0.8c1-0.5 2-1.1 3.1-1.6q0.3-0.1 0.7-0.3 0.4-0.1 0.8-0.3 0.3-0.1 0.7-0.2 0.4-0.1 0.8-0.2 0.7-0.2 1.4-0.3 0.6-0.1 1.3-0.2 0.7-0.1 1.4-0.1 0.7-0.1 1.4-0.1c1.5 0 2.8 0 3.6 0.1q0.2 0 0.4 0 0.2 0 0.3 0 0.2 0 0.4 0 0.1 0.1 0.3 0.1z"/>
		<path id="Layer" class="s7" d="m250.1 276.7q-0.1 0-0.1 0.1 0 0-0.1 0 0 0-0.1 0 0 0.1-0.1 0.1-0.3 0.1-1 0.4-0.4 0.1-0.9 0.2-0.4 0.2-0.9 0.3-0.5 0.1-1 0.2-0.4 0-0.9 0.1c-1.6 0.3-3.5 0.5-5.6 1q-0.8 0.3-1.6 0.6-0.8 0.3-1.6 0.6-0.8 0.4-1.5 0.7-0.8 0.4-1.6 0.9-1.3 0.7-2.7 1.5-1.5 0.7-2.9 1.3-1.4 0.7-2.9 1.3-1.5 0.6-3 1.1c-1.5 0.5-2.7 0.9-3.6 1.2q-0.2 0-0.3 0.1-0.2 0.1-0.4 0.1-0.2 0-0.3 0.1-0.2 0-0.4 0 0.2 0 0.3-0.1 0.2-0.1 0.4-0.2 0.1 0 0.3-0.1 0.2 0 0.3-0.1l3.6-1.4q1.5-0.5 2.9-1.1 1.5-0.7 2.9-1.3 1.4-0.7 2.8-1.4 1.4-0.7 2.8-1.5 0.8-0.4 1.5-0.8 0.8-0.4 1.6-0.8 0.8-0.3 1.7-0.6 0.8-0.3 1.6-0.5 0.7-0.2 1.4-0.3 0.7-0.2 1.4-0.3 0.7-0.1 1.4-0.2 0.7-0.1 1.4-0.2 0.5 0 1-0.1 0.5-0.1 0.9-0.2 0.5-0.1 1-0.2 0.4-0.1 0.9-0.2 0.2 0 0.3-0.1 0.2 0 0.4-0.1 0.1 0 0.3 0 0.2-0.1 0.4-0.1z"/>
		<path id="Layer" class="s7" d="m264.7 281q-0.1-0.1-0.1-0.3-0.1-0.1-0.1-0.3 0-0.1-0.1-0.3 0-0.1 0-0.3-0.2-0.7-0.5-1.3-0.4-0.7-0.9-1.2-0.4-0.6-1-1-0.6-0.4-1.3-0.6-0.2-0.1-0.3-0.1-0.2-0.1-0.3-0.1-0.1-0.1-0.3-0.1-0.1-0.1-0.3-0.2c0 0 0.5-0.1 1.3 0.1q0.4 0.1 0.7 0.3 0.4 0.1 0.7 0.3 0.4 0.2 0.7 0.5 0.3 0.2 0.5 0.5 0.3 0.3 0.5 0.6 0.2 0.4 0.4 0.7 0.2 0.4 0.3 0.8 0.1 0.3 0.1 0.7 0.1 0.2 0.1 0.3 0 0.2 0 0.4 0 0.1 0 0.3-0.1 0.1-0.1 0.3z"/>
		<path id="Layer" class="s7" d="m273 292.2q0-0.2 0-0.4 0-0.2-0.1-0.4 0-0.2 0-0.4 0-0.2 0-0.4-0.2-0.5-0.4-1-0.2-0.4-0.5-0.9-0.2-0.4-0.6-0.7-0.3-0.4-0.7-0.7-0.4-0.3-0.9-0.6-0.4-0.2-0.9-0.5-0.4-0.2-0.9-0.4-0.5-0.2-0.9-0.4-0.3 0-0.5-0.1-0.2-0.1-0.4-0.2-0.2 0-0.4-0.1-0.2-0.1-0.3-0.2 0.2 0 0.4 0 0.2 0 0.4 0 0.2 0.1 0.5 0.1 0.2 0.1 0.4 0.2 0.5 0.1 1 0.3 0.5 0.2 1 0.4 0.5 0.2 0.9 0.5 0.5 0.3 0.9 0.6 0.4 0.3 0.8 0.7 0.4 0.4 0.6 0.9 0.3 0.4 0.5 0.9 0.2 0.6 0.3 1.1 0.1 0.2 0.1 0.4 0 0.3 0 0.5-0.1 0.2-0.1 0.4-0.1 0.2-0.2 0.4z"/>
		<path id="Layer" class="s7" d="m223.9 293.8q-0.1 0.1-0.2 0.2-0.1 0.1-0.2 0.1-0.1 0.1-0.2 0.2-0.1 0-0.2 0-0.3 0.2-0.7 0.3-0.3 0.2-0.6 0.3-0.3 0.1-0.7 0.2-0.3 0.1-0.6 0.2-0.2 0.1-0.5 0.2-0.2 0.1-0.4 0.1-0.3 0.1-0.5 0.2-0.2 0-0.5 0.1-0.3 0-0.5 0-0.3 0-0.6 0-0.3-0.1-0.6-0.1-0.3-0.1-0.5-0.2-0.3-0.1-0.6-0.3-0.3-0.1-0.5-0.4-0.3-0.2-0.4-0.5-0.2-0.2-0.3-0.5-0.2-0.3-0.3-0.7-0.1-0.3-0.2-0.6 0-0.4-0.1-0.7 0-0.3 0.1-0.7 0-0.2 0.1-0.5 0.1-0.2 0.2-0.5 0.1-0.2 0.3-0.4 0.2-0.2 0.4-0.4 0.1-0.1 0.3-0.2 0.2-0.2 0.4-0.3 0.2-0.1 0.4-0.2 0.2-0.2 0.4-0.3l-0.1 0.3q-0.2-0.4-0.2-0.9-0.1-0.5-0.1-1 0.1-0.4 0.2-0.9 0.1-0.5 0.3-0.9 0.2-0.3 0.4-0.6 0.2-0.4 0.5-0.6 0.2-0.3 0.5-0.6 0.2-0.3 0.5-0.5 0.2-0.2 0.4-0.3 0.2-0.1 0.4-0.3 0.2-0.1 0.4-0.3 0.2-0.1 0.4-0.2 0.1-0.1 0.1-0.1 0.1-0.1 0.2-0.1 0.1 0 0.2-0.1 0 0 0.1 0c0.1 0-0.8 0.5-2 1.6q-0.2 0.3-0.5 0.5-0.2 0.3-0.4 0.6-0.2 0.3-0.4 0.6-0.2 0.3-0.4 0.6-0.2 0.4-0.3 0.8-0.1 0.4-0.1 0.9 0 0.4 0 0.9 0.1 0.4 0.2 0.8l0.1 0.2-0.2 0.1c-0.9 0.5-2.1 1.2-2.2 2.4q0 0.3 0 0.6 0 0.3 0.1 0.6 0 0.3 0.1 0.6 0.1 0.3 0.3 0.6 0.1 0.2 0.2 0.5 0.2 0.2 0.4 0.4 0.2 0.2 0.4 0.3 0.2 0.2 0.5 0.3 0.2 0.1 0.5 0.1 0.2 0.1 0.5 0.1 0.2 0.1 0.5 0.1 0.2 0 0.5-0.1 0.2 0 0.4 0 0.3-0.1 0.5-0.2 0.2 0 0.4-0.1 0.3 0 0.5-0.1c1.1-0.3 2-0.6 2.6-0.8q0.1-0.1 0.2-0.1 0.1-0.1 0.3-0.1 0.1-0.1 0.2-0.1 0.1 0 0.2-0.1z"/>
		<path id="Layer" class="s2" d="m301.4 91.5c-2.1-21.6-6.7-43.2-5.8-65l-17.8 11.2c0.9 8.6-6.9 15.3-11.3 22.7q-2.1 3.4-3.2 7.1-1.2 3.8-1.4 7.7-0.3 4 0.4 7.8 0.7 3.9 2.2 7.5c1.6 3.6 3.9 7 4.5 10.9 1 6.6-3.1 13.3-1.6 19.8 1.7 7.5 10.9 11.6 18.2 9.5 7.4-2.1 12.7-9 14.9-16.3 2.1-7.3 1.7-15.2 0.9-22.9z"/>
		<path id="Layer" class="s2" d="m278.8 34c0.9-5.3 3.3-10.2 6.8-14.3 3.6-4 8.1-7.1 13.2-8.8 5.1-1.8 10.5-2.1 15.8-1.1 5.3 1.1 10.1 3.6 14.2 7.1 3.2 2.9 5.9 6.6 9.6 8.8 4.3 2.5 4.8 1.6 9.5 3.1 4.7 1.6 13.9 13.8 14 18.7l3.7 21.4c0.1 5.1-6.2 8.3-11.1 7-4.9-1.3-8.3-5.6-11.1-9.8-2.8-4.3-5.5-8.8-9.8-11.5-7.1-4.4-16.3-2.1-24.4 0-8.1 2.2-17.5 4-24.3-1-5.7-4.3-7.5-12.5-6.1-19.6z"/>
		<path id="Layer" class="s6" d="m276.2 65c0-14.1 8.3-31.8 22.3-31.2l44.3 8.4q1.6 0.1 3 0.7 1.4 0.6 2.5 1.7 1.1 1.1 1.7 2.5 0.6 1.4 0.7 3l1.7 105.5h0.3c0 0-15.4 38.7-44.8 31.4-5.9-1.4-1.5-15.9-3.1-22.3l-0.3 0.1c0-0.8-0.1-1.5-0.1-2.2q-0.4-1.8-0.6-3.6-0.2-1.8-0.4-3.6-0.1-1.8-0.1-3.6-0.1-1.8 0-3.7c-0.6-8.4-0.8-12-0.8-11.8 0 0.1-18.1-1.9-23.3-25.1-2.5-11.5-3.1-30.5-3-46.2z"/>
		<path id="Layer" class="s2" d="m284 83.4q0 0.6 0.3 1.1 0.2 0.6 0.7 1 0.4 0.4 0.9 0.6 0.6 0.2 1.2 0.2 0.6 0 1.1-0.2 0.5-0.2 0.9-0.7 0.5-0.4 0.7-0.9 0.2-0.5 0.2-1.1 0-0.6-0.3-1.1-0.2-0.6-0.7-1-0.4-0.4-0.9-0.6-0.6-0.2-1.2-0.2-0.6 0-1.1 0.2-0.5 0.2-0.9 0.7-0.5 0.4-0.7 0.9-0.2 0.5-0.2 1.1z"/>
		<path id="Layer" class="s2" d="m280.9 74.7c0.4 0.3 2.6-1.5 5.8-1.7 3.2-0.1 5.7 1.3 6 0.9 0.2-0.2-0.3-0.9-1.3-1.6q-0.6-0.3-1.2-0.5-0.5-0.3-1.2-0.4-0.6-0.2-1.2-0.2-0.6-0.1-1.3 0-0.6 0-1.2 0.2-0.6 0.1-1.2 0.3-0.6 0.3-1.1 0.6-0.5 0.3-1 0.7c-1 0.8-1.3 1.5-1.1 1.7z"/>
		<path id="Layer" class="s2" d="m313.1 81.8q0 0.6 0.3 1.1 0.2 0.5 0.7 0.9 0.4 0.4 0.9 0.6 0.6 0.3 1.2 0.2 0.6 0.1 1.1-0.2 0.5-0.2 0.9-0.6 0.5-0.4 0.7-0.9 0.2-0.6 0.2-1.1 0-0.6-0.3-1.2-0.2-0.5-0.7-0.9-0.4-0.4-1-0.6-0.5-0.2-1.1-0.2-0.6 0-1.1 0.2-0.5 0.2-1 0.6-0.4 0.4-0.6 1-0.2 0.5-0.2 1.1z"/>
		<path id="Layer" class="s2" d="m312.7 73.4c0.4 0.3 2.5-1.5 5.8-1.7 3.2-0.2 5.6 1.3 6 0.9 0.1-0.2-0.3-0.9-1.4-1.6q-0.5-0.3-1.1-0.5-0.6-0.3-1.2-0.4-0.6-0.2-1.3-0.2-0.6-0.1-1.2 0-0.7 0-1.3 0.1-0.6 0.2-1.2 0.4-0.5 0.2-1.1 0.5-0.5 0.4-1 0.8c-0.9 0.8-1.2 1.5-1 1.7z"/>
		<path id="Layer" class="s2" d="m302.4 98c0-0.2-2-0.4-5.3-0.6-0.8 0-1.6-0.2-1.8-0.7q0-0.4 0-0.7 0-0.3 0-0.6 0.1-0.3 0.2-0.6 0.1-0.3 0.2-0.6c0.7-2 1.3-4.2 2.1-6.4 2.8-9.2 4.8-16.7 4.4-16.8-0.3-0.1-3 7.2-5.8 16.4l-1.9 6.4q-0.2 0.4-0.3 0.8-0.1 0.4-0.1 0.8-0.1 0.4 0 0.9 0 0.4 0.1 0.8 0.1 0.2 0.3 0.4 0.1 0.2 0.3 0.3 0.2 0.1 0.4 0.2 0.2 0.2 0.5 0.2 0.1 0 0.3 0.1 0.2 0 0.4 0 0.1 0 0.3 0 0.2 0 0.4 0c3.3 0 5.3-0.1 5.3-0.3z"/>
		<path id="Layer" class="s7" d="m302.5 136.3q4.1-0.2 8.1-0.9 4.1-0.8 8-2.1 3.9-1.3 7.6-3.1 3.7-1.8 7.1-4.1c2.2-1.6-7 16.7-30.5 16z"/>
		<path id="Layer" class="s7" d="m304.2 105.7q0.4-0.6 1-1.1 0.6-0.5 1.2-0.8 0.7-0.3 1.4-0.5 0.8-0.1 1.5-0.1 0.5 0 1.1 0.2 0.5 0.1 1 0.3 0.5 0.2 0.9 0.5 0.4 0.4 0.8 0.8 0.3 0.3 0.5 0.8 0.3 0.5 0.3 1 0.1 0.5 0 1-0.1 0.5-0.3 1-0.4 0.4-0.9 0.8-0.5 0.3-1 0.5-0.6 0.2-1.1 0.2-0.6 0-1.2-0.2-0.6-0.1-1.1-0.4-0.6-0.2-1.1-0.5-0.6-0.3-1.1-0.6-0.5-0.3-1-0.7-0.1-0.1-0.2-0.2-0.2-0.1-0.3-0.2-0.1-0.1-0.2-0.2-0.2-0.2-0.3-0.3-0.1-0.1-0.1-0.3-0.1-0.1-0.1-0.3 0-0.1 0.1-0.3 0-0.2 0.1-0.3"/>
		<path id="Layer" class="s2" d="m312 99.7c-0.5 0-0.3 3.5-3.2 6.1-2.8 2.7-6.6 2.5-6.6 3 0 0.2 0.9 0.6 2.5 0.6q0.7 0 1.5-0.2 0.7-0.2 1.4-0.5 0.7-0.3 1.4-0.7 0.6-0.4 1.2-0.9 0.5-0.5 1-1.1 0.4-0.6 0.7-1.2 0.3-0.7 0.5-1.4 0.2-0.7 0.2-1.5c0.1-1.4-0.3-2.3-0.6-2.2z"/>
		<path id="Layer" class="s2" d="m311.1 61.1c0.4 0.9 3.6 0.3 7.4 0.5 3.8 0.2 6.9 1.1 7.4 0.3 0.2-0.4-0.4-1.2-1.7-2q-1.3-0.7-2.7-1.1-1.4-0.4-2.8-0.5-1.5-0.1-3 0.2-1.4 0.2-2.7 0.8c-1.4 0.7-2 1.4-1.9 1.8z"/>
		<path id="Layer" class="s2" d="m281.5 65.3c0.6 0.7 2.8-0.2 5.5-0.4 2.7-0.2 5 0.2 5.4-0.6 0.2-0.4-0.2-1.1-1.2-1.8q-1-0.5-2.2-0.8-1.1-0.2-2.3-0.1-1.2 0.1-2.3 0.6-1.1 0.4-2 1.1c-0.9 0.9-1.1 1.6-0.9 2z"/>
		<path id="Layer" class="s2" d="m298.9 27.8l1.9-2.7q5 0.3 10.1 0.9 5.1 0.6 10.1 1.5 5 1 9.9 2.3 5 1.3 9.8 2.9c5.2 1.7 10.4 3.9 14.1 7.8 5.1 5.5 6.4 13.4 7.4 20.9 3.8 28.2 7.3 57.3 0.1 84.9-2.4-3.4-6.7-4.7-10.7-5.2-4.1-0.5-8.3-0.5-12-2.1q-1.6-0.7-2.9-1.7-1.4-1-2.5-2.3-1.1-1.2-1.9-2.7-0.9-1.5-1.4-3.1-0.5-1.6-0.7-3.2-0.2-1.7-0.1-3.4 0.1-1.6 0.4-3.3 0.4-1.6 1.1-3.2c1.9-4.6 5.4-9.2 4.2-14-1.3-5-7.4-7.6-9.1-12.6-2.9-8.5 8.8-17.1 5.8-25.6-1.1-3.2-4.1-5.3-7.1-6.6-3.1-1.3-6.4-2-9.5-3.2-2.6-1-5-2.5-7.1-4.3-2.2-1.8-4-3.9-5.5-6.2-1.5-2.3-2.7-4.9-3.4-7.6-0.7-2.7-1.1-5.4-1-8.2z"/>
		<path id="Layer" class="s2" d="m368.1 41.7c-14.5-20.4-24.4-22.8-38.1-23.6l19 42.6c2.9 6.9 6.8 15.2 7.4 22.6 0.7 8.8-2.3 16.1-6.4 23.9-4.8 9.3-10.2 18.3-18.6 24.7-8.4 6.4-27.1 14.4-36.8 10.3l13.6 7.5 32.3 0.2 37.6 0.1c0 0 4.4-3.9 8.3-13.8 9.7-25-2.1-71.8-18.3-94.5z"/>
		<path id="Layer" class="s2" d="m394.9 174.5c0 0-8.1-16.7-18.6-25.8-10.6-9.1-17.1-9.1-32.2-7.8-15.1 1.3-36.2 3.7-41.2 2.4l-0.4-7c-2.5-0.2-12.7-5.2-14.7-8.2-3.7 3.9-5.4 8-4.5 12.4l-2.5 0.9c-1.8 0.7-3.5 1.7-4.9 3-1.5 1.2-2.7 2.7-3.6 4.4-0.9 1.7-1.5 3.6-1.7 5.5-0.3 1.9-0.2 3.8 0.3 5.7 0.9 3.6 3.2 5.8 7.7 6.6 18.1 3.1 66.5-9.9 81.1-10 14.6 0 35.2 17.9 35.2 17.9z"/>
		<path id="Layer" class="s2" d="m277 166.4q0.2 0 0.3 0 0.2 0 0.3 0 0.2 0 0.4 0 0.1 0.1 0.3 0.1c0.8 0.1 2 0.2 3.6 0.3q1.6 0.1 3.3 0.2 1.6 0.1 3.3 0.1 1.6 0 3.3 0 1.7 0 3.3-0.1 2.5-0.1 4.9-0.3 2.5-0.3 4.9-0.6 2.4-0.3 4.9-0.8 2.4-0.4 4.8-0.9 5.4-1.2 11.2-2.9l12-3.7c8.2-2.5 16.4-4.2 23.9-3.4q2.5 0.2 4.9 0.7 2.4 0.5 4.8 1.2 2.4 0.8 4.6 1.8 2.3 1 4.4 2.3 1.5 0.8 2.9 1.8 1.3 0.9 2.6 2 1.3 1 2.5 2.2 1.3 1.1 2.4 2.4 0.3 0.3 0.6 0.7 0.3 0.3 0.6 0.7 0.2 0.3 0.5 0.7 0.3 0.3 0.6 0.7 0.1 0.1 0.2 0.2 0 0.2 0.1 0.3 0.1 0.1 0.2 0.2 0.1 0.2 0.2 0.3-0.1-0.1-0.3-0.2-0.1-0.1-0.2-0.2-0.1-0.2-0.2-0.3-0.1-0.1-0.2-0.2-0.7-1-2.4-2.7-2.8-3-6.1-5.4-3.3-2.4-7.1-4.2-3.7-1.8-7.6-2.9-4-1.1-8.1-1.4c-7.3-0.7-15.4 1-23.6 3.4-4.1 1.3-8 2.6-11.9 3.7q-5.9 1.7-11.4 2.9-2.4 0.5-4.8 0.9-2.5 0.4-4.9 0.7-2.5 0.3-4.9 0.5-2.5 0.2-5 0.3-1.6 0.1-3.3 0.1-1.7 0-3.3-0.1-1.7 0-3.4-0.2-1.6-0.1-3.3-0.3c-1.5-0.1-2.7-0.3-3.6-0.4q-0.1 0-0.3 0-0.1-0.1-0.3-0.1-0.1 0-0.3 0-0.1-0.1-0.3-0.1z"/>
		<path id="Layer" class="s2" d="m395.8 169c-18.3-23.7-53.3-32.8-80.8-20.9l-29 6.1c-7.6 1.3-19.9 3.8-20.5 10.9q-0.2 2.8 0 5.6 0.2 2.8 0.8 5.6 0.6 2.7 1.6 5.3 1 2.7 2.3 5.1c6.8 11.8 3.1 27.5 9.8 39.2 3.2 5.6 6.5 11.2 11.1 15.6 4.7 4.4 11 7.5 17.3 6.8 7.1-0.7 12.9-5.9 17.4-11.4 9.7-11.9 15.7-26.3 24.8-38.7 9.1-12.4 19.8-21.5 38.8-22.6 3.5-0.2 13.4 4.4 13.4 4.4 0.2-1.4-6.1-9.9-7-11z"/>
		<g id="Layer" style="opacity: .3">
			<path id="Layer" class="s0" d="m356.8 154.9c-12.7 0-25 6-37.3 8.7-49.1 10.9-49.1-7.7-49.1-7.7-1.6 8.7 6.6 12.7 15.2 14.7 16.5 3.8 34 5.9 45.9 2.1 9.6-3 19.5-5.3 29.2-8 9.6-2.8 23.5-1.7 30.8 5.1-6.5-10.7-22.1-14.9-34.7-14.9z"/>
		</g>
		<g id="Layer" style="opacity: .3">
			<path id="Layer" class="s0" d="m292.9 153.6q0.4 0.9 1 1.8 0.7 0.8 1.5 1.5 0.8 0.7 1.7 1.2 1 0.5 2 0.8 1 0.3 2 0.5 1.1 0.2 2.1 0.3 1.1 0.1 2.1 0.1 1.1 0 2.2-0.2c10.2-0.7 20.1-4.1 29.8-7.5-7.7-0.3-15.3 2.5-22.9 4-7.6 1.6-16.2 1.7-22.4-3"/>
		</g>
		<path id="Layer" class="s0" d="m398.3 176.6q-0.1 0-0.3-0.2l-0.6-0.7q-0.8-1-2.4-2.6-1.1-1.2-2.4-2.3-1.2-1-2.6-2-1.3-0.9-2.7-1.7-1.5-0.8-3-1.4-1-0.4-2.1-0.7-1.1-0.3-2.2-0.6-1.1-0.2-2.2-0.4-1.1-0.1-2.3-0.2-1.3-0.1-2.5-0.1-1.3-0.1-2.6 0-1.3 0-2.6 0.1-1.3 0.2-2.6 0.3c-7.3 1-14.9 3.6-23.1 5.9-8.1 2.3-15.9 4.8-23.3 5.1q-2.4 0.1-4.8 0.1-2.5 0-4.9-0.2-2.5-0.2-4.9-0.5-2.4-0.3-4.8-0.7c-5.5-1-9.8-2.2-12.8-3l-3.5-0.8-0.9-0.3-0.3-0.1q0 0 0.1 0 0 0 0.1 0 0 0 0.1 0 0 0 0 0l0.9 0.2 3.5 0.8c3 0.7 7.4 1.8 12.9 2.7q2.4 0.5 4.8 0.8 2.4 0.3 4.8 0.4 2.4 0.2 4.9 0.2 2.4 0 4.8-0.1c7.3-0.4 15.1-2.7 23.2-5.1 8.1-2.5 15.8-4.9 23.1-5.9q1.3-0.2 2.6-0.3 1.3-0.1 2.7-0.1 1.3-0.1 2.6 0 1.3 0 2.6 0.1 2.8 0.2 5.5 0.9 2.7 0.7 5.2 1.9 2.5 1.3 4.8 3 2.2 1.7 4 3.8 1.6 1.7 2.4 2.7l0.6 0.7z"/>
		<path id="Layer" class="s0" d="m379.9 152.1q0 0-0.1 0 0 0 0 0 0-0.1-0.1-0.1 0 0 0 0l-0.6-0.6q-0.7-0.7-2.2-2-1.1-0.8-2.3-1.6-1.1-0.8-2.3-1.6-1.1-0.7-2.4-1.4-1.2-0.6-2.4-1.2-1.9-0.8-3.8-1.6-2-0.7-4-1.2-1.9-0.6-3.9-1-2.1-0.4-4.1-0.7-2.5-0.3-5-0.5-2.5-0.1-5-0.1-2.6 0-5.1 0.2-2.5 0.1-5 0.4-2.5 0.4-5 0.8-2.5 0.4-4.9 0.8-2.5 0.5-5 1-2.5 0.5-4.9 1.1-1.1 0.3-2.2 0.5-1.1 0.1-2.2 0.2-1.1 0.1-2.2 0.1-1.1 0-2.2-0.1-1 0-2-0.2-0.9-0.2-1.8-0.6-1-0.3-1.8-0.8-0.9-0.4-1.7-1-0.6-0.5-1.2-1-0.6-0.5-1.1-1.1-0.6-0.6-1.1-1.3-0.5-0.6-0.9-1.3-0.3-0.5-0.6-1-0.3-0.5-0.6-1.1-0.3-0.5-0.5-1-0.3-0.6-0.5-1.1c-0.5-1.2-0.9-2.2-1.1-2.9l-0.2-0.7q0-0.1 0-0.1 0 0 0 0-0.1-0.1-0.1-0.1 0 0 0-0.1c0 0 0.1 0.1 0.1 0.3 0.1 0.1 0.2 0.4 0.3 0.7 0.3 0.6 0.6 1.6 1.2 2.8q0.2 0.5 0.5 1.1 0.3 0.5 0.5 1 0.3 0.5 0.6 1.1 0.3 0.5 0.7 1 0.4 0.6 0.9 1.2 0.5 0.7 1 1.2 0.5 0.6 1.1 1.1 0.6 0.6 1.2 1 0.8 0.6 1.7 1 0.8 0.4 1.7 0.7 0.9 0.4 1.8 0.6 1 0.1 1.9 0.2 1.1 0.1 2.2 0.1 1.1 0 2.2-0.1 1.1-0.1 2.1-0.3 1.1-0.2 2.2-0.4 2.4-0.6 4.9-1.2 2.5-0.5 5-1 2.5-0.4 5-0.8 2.5-0.4 5-0.8 2.5-0.3 5-0.5 2.5-0.1 5.1-0.1 2.5 0 5 0.1 2.6 0.2 5.1 0.5 2 0.3 4.1 0.7 2 0.5 4 1.1 2 0.5 3.9 1.3 1.9 0.7 3.8 1.6 1.3 0.6 2.5 1.3 1.2 0.6 2.4 1.4 1.2 0.7 2.3 1.6 1.1 0.8 2.2 1.7 0.3 0.2 0.6 0.5 0.2 0.3 0.5 0.5 0.3 0.3 0.6 0.5 0.2 0.3 0.5 0.6l0.5 0.5q0.2 0.2 0.2 0.2z"/>
		<path id="Layer" class="s0" d="m374 151.7h-0.3l-0.7-0.2-2.8-0.4q-1.3-0.2-2.7-0.4-1.3-0.2-2.6-0.3-1.3-0.1-2.6-0.2-1.4-0.1-2.7-0.2-1.9-0.1-3.9-0.1-2 0-3.9 0-2 0.1-4 0.2-1.9 0.2-3.9 0.4-2.4 0.3-4.7 0.7-2.4 0.4-4.8 0.9-2.4 0.4-4.7 1-2.4 0.5-4.7 1.1c-6.6 1.6-13.1 3-19.1 2.9q-1 0-2.1 0-1.1-0.1-2.1-0.2-1.1-0.1-2.1-0.3-1.1-0.2-2.1-0.5-0.9-0.2-1.7-0.6-0.9-0.3-1.7-0.8-0.8-0.4-1.6-0.9-0.8-0.6-1.5-1.2-1-0.9-1.9-1.8-0.9-1-1.7-2.1-0.8-1-1.5-2.2-0.7-1.1-1.3-2.3-0.2-0.5-0.4-0.9-0.2-0.5-0.4-0.9-0.1-0.5-0.3-0.9-0.1-0.5-0.3-1 0 0 0.1 0.1 0 0 0 0 0 0.1 0 0.1 0 0 0 0.1l0.3 0.7c0.3 0.6 0.6 1.5 1.2 2.6q0.6 1.1 1.3 2.3 0.7 1.1 1.5 2.1 0.9 1.1 1.8 2 0.9 1 1.9 1.8 0.7 0.6 1.4 1.1 0.8 0.5 1.6 1 0.8 0.4 1.6 0.7 0.9 0.4 1.7 0.6 1 0.2 2.1 0.4 1 0.2 2 0.3 1.1 0.2 2.1 0.2 1.1 0.1 2.1 0.1c5.9 0 12.3-1.4 19-3q2.4-0.6 4.7-1.1 2.4-0.6 4.8-1 2.3-0.5 4.7-0.9 2.4-0.4 4.8-0.7 2-0.2 3.9-0.3 2-0.2 4-0.2 2-0.1 3.9 0 2 0 4 0.1 1.3 0.1 2.6 0.2 1.4 0.1 2.7 0.3 1.3 0.1 2.6 0.3 1.3 0.2 2.6 0.5 1.9 0.3 2.9 0.5l0.7 0.2q0.2 0 0.2 0.1z"/>
		<path id="Layer" class="s0" d="m374.9 106.8q0 0.2-0.1 0.4 0 0.2 0 0.4-0.1 0.2-0.1 0.4-0.1 0.3-0.2 0.5 0 0.2-0.1 0.5 0 0.2-0.1 0.4-0.1 0.3-0.2 0.5-0.1 0.3-0.1 0.5c-0.3 0.7-0.5 1.6-0.9 2.5-0.4 0.9-0.8 1.9-1.4 3-0.5 1.1-1.1 2.2-1.7 3.3q-1.1 1.8-2.4 3.6-1.2 1.7-2.7 3.3-1.4 1.6-2.9 3.1-1.6 1.5-3.2 2.8c-1.1 0.8-2 1.6-3 2.2-1 0.6-1.9 1.2-2.8 1.7q-1.3 0.7-2.4 1.2-0.2 0.1-0.4 0.3-0.3 0.1-0.5 0.2-0.2 0.1-0.5 0.2-0.2 0.1-0.4 0.2-0.2 0-0.4 0.1-0.2 0.1-0.4 0.2-0.2 0.1-0.4 0.1-0.2 0.1-0.5 0.2 0.2-0.2 0.4-0.3 0.2-0.1 0.4-0.2 0.2-0.1 0.4-0.1 0.2-0.1 0.4-0.2 0.7-0.4 1.8-0.9c0.7-0.4 1.5-0.8 2.3-1.3 0.8-0.6 1.8-1.1 2.7-1.8q1.4-1 3-2.2 1.7-1.3 3.2-2.8 1.5-1.4 2.9-3 1.4-1.6 2.7-3.3 1.2-1.7 2.3-3.6c0.7-1.1 1.3-2.1 1.8-3.2 0.5-1 1-2 1.4-2.9q0.5-1.4 1-2.5c0.3-0.7 0.5-1.4 0.6-1.9q0.1-0.2 0.1-0.4 0.1-0.2 0.1-0.4 0.1-0.2 0.2-0.4 0-0.2 0.1-0.4z"/>
		<path id="Layer" class="s0" d="m373.4 166.4q-0.1 0-0.2 0-0.1 0-0.2 0-0.1 0-0.2 0-0.1-0.1-0.2-0.1l-1-0.1c-0.4-0.1-0.8 0-1.3-0.1q-1.1 0-2.1 0.1-1.1 0-2.1 0.2-1.1 0.2-2.1 0.4-1 0.3-2 0.6-0.7 0.2-1.4 0.5-0.7 0.3-1.4 0.6-0.6 0.2-1.3 0.6-0.7 0.3-1.3 0.6-0.8 0.4-1.5 0.8-0.7 0.4-1.4 0.9-0.8 0.4-1.5 0.8-0.7 0.5-1.4 1c-3.9 2.6-8 5.8-12.5 9.1l-22.5 16.7-6.9 5-1.9 1.3q-0.1 0.1-0.2 0.1 0 0.1-0.1 0.1-0.1 0.1-0.2 0.1-0.1 0.1-0.2 0.1 0.1 0 0.2-0.1 0-0.1 0.1-0.1 0.1-0.1 0.2-0.2 0 0 0.1-0.1l1.9-1.4 6.8-5.1 22.5-16.9c4.4-3.2 8.5-6.4 12.5-9q0.7-0.5 1.4-1 0.7-0.4 1.4-0.8 0.8-0.5 1.5-0.9 0.8-0.4 1.5-0.8 0.7-0.3 1.3-0.6 0.7-0.3 1.4-0.6 0.7-0.3 1.4-0.6 0.7-0.2 1.4-0.4 1-0.4 2-0.6 1.1-0.3 2.1-0.4 1.1-0.1 2.2-0.2 1 0 2.1 0 0.8 0 1.3 0.1l1 0.2q0.1 0 0.2 0 0.1 0.1 0.2 0.1 0.1 0 0.2 0 0.1 0.1 0.2 0.1z"/>
		<path id="Layer" class="s0" d="m405.7 197.1q-0.1-0.2-0.2-0.4 0-0.2-0.1-0.3 0-0.2-0.1-0.4 0-0.2-0.1-0.4c-0.2-0.9-0.5-2.2-1-3.8q-0.2-0.7-0.5-1.4-0.2-0.7-0.4-1.4-0.3-0.7-0.6-1.4-0.3-0.7-0.6-1.4-0.3-0.8-0.8-1.6-0.4-0.8-0.9-1.5-0.6-0.7-1.1-1.4-0.6-0.7-1.2-1.4-0.6-0.6-1.3-1.2-0.7-0.5-1.5-1-0.8-0.5-1.6-0.8-0.8-0.4-1.7-0.6-0.7-0.2-1.4-0.4-0.7-0.1-1.5-0.1-0.7-0.1-1.4-0.1-0.8 0-1.5 0-0.7 0.1-1.4 0.2-0.6 0.1-1.3 0.2-0.7 0.1-1.3 0.3-0.7 0.1-1.4 0.3 0.1-0.1 0.1-0.1 0 0 0.1 0 0 0 0.1-0.1 0 0 0.1 0 0.3-0.1 1-0.3 0.5-0.2 1-0.3 0.5-0.1 1-0.2 0.5-0.1 1-0.2 0.5-0.1 1-0.1 0.7-0.1 1.5-0.1 0.7 0 1.5 0 0.7 0.1 1.5 0.2 0.7 0.1 1.5 0.3 0.9 0.3 1.7 0.6 0.9 0.4 1.7 0.9 0.8 0.4 1.5 1 0.7 0.6 1.4 1.3 0.6 0.6 1.2 1.3 0.6 0.7 1.1 1.5 0.5 0.8 1 1.6 0.4 0.8 0.8 1.6 0.3 0.7 0.6 1.4 0.3 0.7 0.5 1.4 0.3 0.7 0.5 1.4 0.2 0.8 0.4 1.5c0.4 1.6 0.7 3 0.9 3.9q0 0.2 0.1 0.4 0 0.1 0 0.3 0 0.2 0.1 0.4 0 0.2 0 0.4z"/>
	</g>
</svg>