<svg version="1.2" xmlns="http://www.w3.org/2000/svg" viewBox="0 0 700 500" width="700" height="500">
	<title>empty-svg</title>
	<style>
		.s0 { fill: #dfdfeb } 
		.s1 { fill: #d3ddf7 } 
		.s2 { fill: #000000 } 
		.s3 { fill: none;stroke: #424242;stroke-miterlimit:10 } 
		.s4 { fill: #9ec68a } 
		.s5 { fill: #7e9e6e } 
		.s6 { fill: none;stroke: #000000;stroke-linecap: round;stroke-miterlimit:10 } 
		.s7 { fill: #333969 } 
		.s8 { fill: #7584f1 } 
		.s9 { fill: none;stroke: #000000;stroke-linejoin: round } 
		.s10 { fill: none;stroke: #000000;stroke-linecap: round;stroke-linejoin: round } 
		.s11 { fill: none;stroke: #000000;stroke-linecap: round;stroke-linejoin: round;stroke-width: 1 } 
		.s12 { fill: #db9c7f } 
		.s13 { fill: none;stroke: #ffffff;stroke-miterlimit:10 } 
		.s14 { fill: #ffffff } 
	</style>
	<g id="BACKGROUND">
	</g>
	<g id="OBJECTS">
		<path id="Layer" class="s0" d="m350.4 464.3c-106.2 0-192-7.3-192-16.4 0-9 85.8-16.3 192-16.3 106.1 0 191.9 7.3 191.9 16.3 0 9.1-85.8 16.4-191.9 16.4z"/>
		<g id="Layer">
			<path id="Layer" class="s1" d="m298.1 44.9c-19.8 0.6-36.2 16.5-37.3 36.3-0.7 11.6 3.8 22.2 11.4 29.7 1.1 1.1 1.6 2.6 1.4 4.2l-2.9 16.9 17.6-10.3c1-0.5 2.2-0.8 3.3-0.5 4.3 0.8 8.8 1 13.5 0.3 17.3-2.6 30.8-17 32.4-34.4 2.2-23.3-16.4-42.8-39.4-42.2z"/>
			<g id="Layer">
				<path id="Layer" class="s2" d="m297.5 96.8l-0.2-9.3q2.1-0.4 3.7-1.2 1.7-0.8 2.9-1.9 1.3-1 2.1-2.3 0.9-1.2 1.3-2.7 0.4-1.5 0.4-3.1 0-2.4-1.1-4.4-1.1-2.1-3.3-3.4-2.1-1.3-5-1.3-3.2 0-5.9 1.8-2.7 1.7-4.1 5.9l-1-0.6q1.3-4 4.2-6.1 3-2.2 6.7-2.2 3.2 0 5.7 1.4 2.4 1.4 3.7 3.7 1.4 2.3 1.4 5.2 0 2.2-0.7 4.1-0.8 1.9-2.1 3.4-1.3 1.6-3.2 2.8-2 1.2-4.3 1.8l-0.2 8.4c0 0-1 0-1 0zm-0.7 6.8q0-0.7 0.4-1.2 0.4-0.4 1-0.4 0.8 0 1.1 0.4 0.3 0.5 0.3 1.2 0 0.7-0.3 1.2-0.4 0.5-1.1 0.5-0.7 0-1-0.5-0.4-0.4-0.4-1.2z"/>
			</g>
		</g>
		<g id="Layer">
			<path id="Layer" class="s2" d="m186.7 421.6l1.7 12.9c0 0 32 13.7 29.1 13.8-3 0.2-49-2.7-49-2.7l2.7-23.4z"/>
			<path id="Layer" fill-rule="evenodd" class="s3" d="m177.8 211.5c0 0-2.6 24.5-4.5 25.8-1.9 1.3-4.4 1.9-4.4 1.9l4.1-28z"/>
			<g id="Layer">
				<path id="Layer" class="s2" d="m127.2 194.6c0 0-12.9 29.3-9.2 45.6l72-10.9-1.5-30.5z"/>
				<path id="Layer" class="s2" d="m190 229.3c0 0 0.4 70.3 0.9 94.8 0.5 24.5 4.8 100.1 4.8 100.1 0 0-13.5 7.4-27.5 1.5-1.1-0.5-13.1-197.1-13.1-197.1z"/>
				<path id="Layer" class="s2" d="m119.2 231.5l-30.3 193.4c0 0 13.2 12.4 30 1.1l30.8-157.9 15-10.1 2.3-28.8z"/>
				<path id="Layer" class="s2" d="m111.2 420.1l2.8 11.1c0 0 20.2 24.3 17.2 24.3-2.9 0-36.1-15.1-36.1-15.1l4.2-23.1z"/>
				<path id="Layer" fill-rule="evenodd" class="s3" d="m130.3 206.5c0 0-19.1 80.4-33.4 222.4"/>
				<path id="Layer" fill-rule="evenodd" class="s3" d="m143.4 215.1c0 0-6.7 16.8-18.1 17"/>
				<path id="Layer" class="s3" d="m171.7 426.8l-9.8-166.4 9.6-10"/>
				<path id="Layer" class="s4" d="m171.6 110.4c5-1 8.6-1.8 8.6-1.8l31 17q0.1 0 0.2 0.1c10.2 5.6 14.7 15.1 14.4 28.5l1.5 19.3-16.8-13.6-14.2 27.4-9.1 32.4c-48.2 17.5-66.9-14-66.9-14l16-34.5 6.4-32c3.1-16.4 12.6-25.5 28.9-28.8z"/>
			</g>
			<g id="Layer">
				<path id="Layer" class="s5" d="m432.2 165c0 0-4.8 20.4-32.4 45.2 0 0-2.6-3.7 3.3-18 5.9-14.4 28-32.3 29.1-27.2z"/>
				<path id="Layer" fill-rule="evenodd" class="s6" d="m432.2 165c0 0-24.3 15.2-32.4 45.2 0 0-1.8 10.4 1.2 19.6"/>
				<path id="Layer" class="s5" d="m368.7 177.6c0 0 6.8-4.5-3.6-17.5-9.9-12.4-20.5-23.7-42.3-28.9 0 0 4.7 30.2 18.6 38.3 14 8 27.3 8.1 27.3 8.1z"/>
				<path id="Layer" class="s5" d="m313.8 196.2c0 0 22.7 6.5 62.5-4.1 0 0-2.2-4.1-19.5-6.6-17.4-2.5-47.4 7-43 10.7z"/>
				<path id="Layer" fill-rule="evenodd" class="s6" d="m313.8 196.2c0 0 28.5-12.9 62.5-4.1 0 0 3.5 1.2 6.8 6.2"/>
				<path id="Layer" class="s5" d="m331.5 218.2c0 0 23.6 17.8 63.4 7.3 0 0-6.7-14.2-24-16.7-17.4-2.5-43.7 5.8-39.4 9.4z"/>
				<path id="Layer" fill-rule="evenodd" class="s6" d="m331.5 218.2c0 0 27.3-10.6 63.4 7.3 0 0 4.3 2.2 7.6 7.3"/>
				<path id="Layer" class="s2" d="m419.9 144.7c0 0 7.3-0.4-11.5 14.8-17.7 14.4-15.6 14.7-15.6 14.7 0 0 7.9-22.8 27.1-29.5z"/>
				<path id="Layer" class="s5" d="m380.1 181.3c0 0 5.3 2.4 15.7-5.9 10.4-8.4 15.3-28.2 24.1-30.7 0 0-22.1 5.6-39.8 36.6z"/>
				<path id="Layer" fill-rule="evenodd" class="s6" d="m411.3 252.3c-9.6-22.9-23.3-49.2-42.6-74.7 0 0-4.7-7-21.4-25.5-16.6-18.5-24.5-20.9-24.5-20.9"/>
				<path id="Layer" fill-rule="evenodd" class="s6" d="m417.3 145.6c0 0-21.2 7.6-37.2 35.7-3.8 6.8-0.1 12.6 3 17"/>
			</g>
			<g id="Layer">
				<path id="Layer" class="s5" d="m631.1 409.9c0 0-20.5 6.1-54.6-16 0 0 2.2-6 17.7-7 15.4-0.9 41 18.2 36.9 23z"/>
				<path id="Layer" fill-rule="evenodd" class="s6" d="m630.4 408.4c0 0-22.6-17.8-53.5-15.1 0 0-10.4 1.7-18.1 7.7"/>
				<path id="Layer" class="s5" d="m586.5 364.2c0 0 6.6 4.9 15.3-9.4 8.3-13.5 15.3-27.3 12.8-49.6 0 0-26.9 14.8-29.7 30.6-2.8 15.8 1.6 28.4 1.6 28.4z"/>
				<path id="Layer" class="s2" d="m639.4 389.6c0 0 4.3 6-18.7-1.6-21.7-7.1-20.8-5.1-20.8-5.1 0 0 23.4-5.8 39.5 6.7z"/>
				<path id="Layer" class="s5" d="m587.1 376c0 0 0.8 5.8 13.4 10 12.7 4.2 32-2.4 38.9 3.6 0 0-16.7-15.5-52.3-13.6z"/>
				<path id="Layer" fill-rule="evenodd" class="s6" d="m530.8 429.7c18.3-16.9 38.3-38.7 55.7-65.5 0 0 5-6.8 16.8-28.8 11.7-22 11.3-30.2 11.3-30.2"/>
				<path id="Layer" fill-rule="evenodd" class="s6" d="m637.2 387.9c0 0-17.9-13.6-50.1-11.9-7.8 0.4-11.4 4.2-17.2 11.5"/>
			</g>
			<path id="Layer" class="s7" d="m418.1 206c6.3 0 12.3-2.2 17.1-6.2l13.4-11.2c4.8-4 10.5-6.1 16.4-6.1h66.2c6.1 0 10.9 4.8 10.9 10.8v12.7 227.3c0 10.4-8.4 18.8-18.8 18.8h-330.4c-8 0-14.6-6.6-14.6-14.6v-216.9c0-8.1 6.6-14.6 14.6-14.6z"/>
			<path id="Layer" class="s8" d="m178.3 438.7c0 0 22.5-42.2 24.8-47l61.4-125.2c1.6-3.3 4.9-5.5 8.6-5.5h228.3c8.3 0 20.3-4.3 26.7-9.6l9.2-7.7c4.8-4 10.5-6.2 16.4-6.2h63.1c6.7 0 11.2 6.8 8.7 13l-76.3 184.5c-4.3 10.3-14.4 17.1-25.6 17.1h-341.1c-2.3 0-4.3-1.9-4.3-4.1z"/>
			<path id="Layer" class="s9" d="m271.2 272.9l-90.2 175.3"/>
			<path id="Layer" fill-rule="evenodd" class="s9" d="m308.4 303.1h77.6c2.2 0 4.1-1 5.3-2.8 2.6-4.1-0.4-9.4-5.3-9.4h-77.6c-2.1 0-4.1 1.1-5.3 2.9-2.6 4 0.4 9.3 5.3 9.3z"/>
			<g id="Layer">
				<g id="Layer">
					<path id="Layer" class="s10" d="m453.7 363.4l-60.5 36"/>
					<path id="Layer" class="s10" d="m404.2 361.6l38 38"/>
				</g>
				<path id="Layer" class="s11" d="m433.3 414.2c-24.2 6.7-47.9-2.6-53-21-5-18.3 10.5-38.5 34.7-45.2 24.2-6.7 47.9 2.7 53 21 5.1 18.3-10.4 38.5-34.7 45.2z"/>
			</g>
			<path id="Layer" class="s4" d="m193.8 192.1l11.2 12.6c0 0-10.5 12.5-21.2 5.1l-1.7-2.5z"/>
			<path id="Layer" fill-rule="evenodd" class="s6" d="m167.7 117c0 0 15.4 4 3.3 48.4"/>
			<path id="Layer" fill-rule="evenodd" class="s6" d="m194.7 193.5c-8.3-9.4-18.4-21.1-24.4-29.1"/>
			<path id="Layer" fill-rule="evenodd" class="s6" d="m183.8 209.8c-8-8.2-18.8-19.8-23.4-24.1-7.4-6.7-15-17.5-12.5-31.4l-0.3-11.1"/>
			<path id="Layer" class="s4" d="m231.6 203.8c-9.8-5.3-14.4-11.8-18.1-16.7-9.1-11.6-12.3-13-9.6-26.5l0.1-14.1 19.6 21.1c7.5 10 24.7 27.7 31.1 34.7 0 0-7.5 10-23.1 1.5z"/>
			<g id="Layer">
				<path id="Layer" class="s12" d="m191.7 200.3q1.3-0.4 2.7-0.3c3.4 0.4 12.4 1.3 13.4 1.4 1.2 0 2.3-1.9 4.9 4.9 2.7 6.7 2.2 7.4 2.2 8.2 0 0.9-1.9 13.9-4 12-2.1-2-1.8-3.1-1.8-3.1 0 0-1.2 5.3-1.8 5.1-0.6-0.3-2.8-0.3-2.4-4 0 0-1.2 3.6-2.4 2.7-1.3-0.9-1-4.8-1-4.8 0 0-1.3 3-2.8 1-1.5-2-0.4-6.5-0.4-6.5l-1.3-3.4-2.7-1.2c0 0-9.2 2.4-10.8-4-1.2-4.9 5.1-7.2 8.2-8z"/>
				<g id="Layer">
					<path id="Layer" class="s6" d="m210.2 208.6l1.7 7.2-2.8 7.6"/>
					<path id="Layer" class="s6" d="m205.7 208.3l2.3 7.4-3.1 8.8"/>
					<path id="Layer" class="s6" d="m201.8 209.1l1.4 7.2-1.5 5.3"/>
				</g>
			</g>
			<path id="Layer" fill-rule="evenodd" class="s6" d="m194.3 71c-3.2 3.1-3.3 6.8-3.3 6.8 0 0-1.1-1.4-2.5-1.9"/>
			<g id="Layer">
				<g id="Layer">
					<path id="Layer" class="s12" d="m241 198.2c3.1-0.8 6.4-0.3 9.3 1.2 3.7 1.9 9.5 4.9 10.3 5.1 1.1 0.4 1.9-0.3 2 6.6 0.1 2.7 0.1 4.6-0.2 5.4-0.2 0.8-5.7 9-7.5 7.9q-0.1-0.1-0.1-0.1c-0.5 0.6-1.1 1.4-1.7 1.9-0.5 0.4-3 0.3-1.7-3 0 0-1.7 3.8-3.1 3.3-1.7-0.7-1.4-2.3-0.8-3.8-0.8 1.1-1.8 2-2.6 1.1-1.4-1.9 1.8-8.6 1.8-8.6l0.4-4-2.4-2.2c0 0-8.8 0.2-8.6-6 0.1-2.9 2.4-4.2 4.9-4.8z"/>
					<g id="Layer">
						<path id="Layer" class="s6" d="m260.2 208.6l-0.1 7.4-5.4 7.8"/>
						<path id="Layer" class="s6" d="m256.4 208.7l-0.4 7.6-4.6 6.9"/>
						<path id="Layer" class="s6" d="m252.5 208.9l-0.5 6.4-3.9 6.4"/>
					</g>
				</g>
				<path id="Layer" class="s12" d="m241.4 207.2c0 0 0.9 6.6-1.2 8-2.1 1.5-5.6-12.2-3.2-12.4 3.5-0.2 4.4 4.4 4.4 4.4z"/>
				<path id="Layer" fill-rule="evenodd" class="s6" d="m244.3 206.2c0 0-2.1 0.3-2.7 2.8"/>
			</g>
			<path id="Layer" fill-rule="evenodd" class="s6" d="m203.2 174.3l10.3-13.5c9.4-12.4 3.2-25.6 3.2-25.6"/>
			<path id="Layer" fill-rule="evenodd" class="s6" d="m227.3 173.5c0 0-6.1-8.4-7.4-4.7"/>
			<g id="Layer">
				<path id="Layer" class="s13" d="m229.7 103.5l-1.8-0.4"/>
				<path id="Layer" class="s14" d="m193.1 101.9l-12.9 6.7c0 0-0.3 15.4 14.2 27.1l6.5-6.4 6.6 6.6c0 0 2.5-1.9 3.2-10.9l-1.1-10.8z"/>
				<path id="Layer" class="s10" d="m209.6 114.2l-16.5-12.3-12.9 6.7"/>
				<path id="Layer" class="s12" d="m189.4 104.2c0 0 4 23.4 9.9 25.1 5.9 1.6 9.6-10.1 9.6-10.1l-11.4-31.9z"/>
				<path id="Layer" class="s2" d="m211.1 122l0.1 2.9c0.1 0.1-0.1 0.9-3 1.3-12.7-0.4-13.7-14.7-14.7-26 0 0 18.8 19.6 17.6 21.8z"/>
				<path id="Layer" class="s12" d="m228.9 90.2c0 0 3.2 29.7-14.2 34.5-17.4 4.8-21.5-23.6-20.9-33.4 0.6-9.8 5.5-14.6 17.6-15.1 18.1-0.6 17.5 14 17.5 14z"/>
				<path id="Layer" class="s2" d="m202.8 82.2c0 0-0.3 6.2-4.4 7.5l-3 9.1c0 0-2.5-4-5.2-5.5 0 0-3.1-12.1 0.7-16.9 3.8-4.8 9.1-7.2 21.9-6.2 9.8 0.8 15.5 7.7 17.3 11.3 0.6 1.1 2.1 4.3-1.3 7.4 0 0 0-2.3-2-5.1 0 0-4.6 9.5-24-1.6z"/>
				<path id="Layer" class="s12" d="m186.1 100.4c1.1 3.9 4.2 6.5 6.9 5.8 2.7-0.7 4.1-4.5 3-8.4-1.1-3.9-4.1-6.5-6.9-5.8-2.7 0.7-4 4.5-3 8.4z"/>
				<path id="Layer" class="s2" d="m211.2 101.7c0 1 0.5 1.9 1.1 1.9 0.6 0 1.2-0.8 1.2-1.8 0.1-1-0.4-1.8-1-1.9-0.7 0-1.2 0.8-1.3 1.8z"/>
				<path id="Layer" class="s2" d="m224.6 102.5c-0.1 1 0.3 1.8 0.9 1.9 0.6 0 1.1-0.7 1.2-1.6 0.1-1-0.3-1.8-0.8-1.9-0.6 0-1.2 0.7-1.3 1.6z"/>
				<path id="Layer" fill-rule="evenodd" class="s6" d="m207.4 93.7c0 0 4.6 1 4.9-3.4"/>
				<path id="Layer" fill-rule="evenodd" class="s6" d="m223 93.4c0 0 1.2 4 4.6 1.7"/>
				<path id="Layer" class="s2" d="m210.4 118c0 0-1.5-6.2-6.2-2.7z"/>
				<path id="Layer" fill-rule="evenodd" class="s10" d="m188.9 97c0 0 3-2.6 4.7 2.2 0 0-1.8 1.9-0.6 3.4 0 0-1.8 0.4-2.7-1.2"/>
				<path id="Layer" fill-rule="evenodd" class="s10" d="m190.2 98.8c0 0 0.2-1 1.4-2.3"/>
				<path id="Layer" fill-rule="evenodd" class="s13" d="m222 102.4c0 2.8 1.7 5.2 3.9 5.2 2.2 0 3.9-2.4 3.9-5.2 0-2.9-1.7-5.2-3.9-5.2-2.2 0-3.9 2.3-3.9 5.2z"/>
				<path id="Layer" fill-rule="evenodd" class="s13" d="m207.3 101.7c0 3 2.2 5.5 5 5.5 2.7 0 5-2.5 5-5.5 0-3.1-2.3-5.5-5-5.5-2.8 0-5 2.4-5 5.5z"/>
				<path id="Layer" fill-rule="evenodd" class="s13" d="m222.2 103.9c0 0-1.3-5.2-5.2-0.4"/>
				<path id="Layer" class="s13" d="m207.4 99.6l-11.7-2.6"/>
				<path id="Layer" fill-rule="evenodd" class="s6" d="m222.6 106.2c0.6 0.7 0.7 1.6 0.4 2.5-0.2 0.9-1.2 1.5-2.1 1.5-0.5 0-0.9-0.1-1.3-0.3-0.2 0-0.6-0.2-0.8-0.1-0.9 0.4-2.1-0.4-1.7-1.1"/>
			</g>
		</g>
	</g>
</svg>